<?xml version="1.0" encoding="UTF-8"?>
<svg id="Camada_1" xmlns="http://www.w3.org/2000/svg" version="1.1" xmlns:xlink="http://www.w3.org/1999/xlink" viewBox="0 0 749.4 119.9">
  <!-- Generator: Adobe Illustrator 29.3.1, SVG Export Plug-In . SVG Version: 2.1.0 Build 151)  -->
  <defs>
    <style>
      .st0 {
        fill: #3c3c3b;
      }
    </style>
  </defs>
  <path class="st0" d="M413.9,21.8c1.6-3,3.4-5.7,5.4-8.2,3.9-4.9,8.1-8.4,12.7-10.6,4.6-2.2,9.9-3.3,16.2-3.3s11.8,1.1,16.4,3.3c4.6,2.3,8.8,5.8,12.6,10.6,2,2.5,3.7,5.2,5.3,8.2h16.8c-.5-.7-1.1-1.3-1.7-2-6.4-7.2-13.8-12.8-22.3-16.8s-19.2-6-26.3-6-14.2,1.3-21.2,3.8c-7,2.5-13.5,6-19.6,10.7-4.1,3.2-7.6,6.6-10.7,10.3h16.4Z"/>
  <path class="st0" d="M343.5,7.1c1.9,1.9,3.1,4.3,3.8,7.2.4,1.9.7,4.3.9,7.5h3.7c.1-3.1.4-5.6.9-7.5.7-2.9,2-5.3,3.8-7.2,3.3-3.4,7.9-5.1,13.8-5.1V0h-40.7V2c3.4.2,6.1.6,8.2,1.4s4,2,5.6,3.7h0Z"/>
  <path class="st0" d="M256.4,7.1c1.9,1.9,3.1,4.3,3.8,7.2.4,1.9.7,4.4.9,7.5h3.6v-5.8l4.6,5.8h24.4L276.6,0h-34V2c3.5.2,6.2.6,8.3,1.4,2.1.8,3.9,2,5.5,3.7h0Z"/>
  <path class="st0" d="M269.5,113.4c-1.9-1.9-3.1-4.3-3.8-7.2-.7-2.9-1-7.3-1-13.4v-56h-3.5v56c0,6-.3,10.5-1,13.4s-2,5.3-3.8,7.2c-1.6,1.7-3.5,2.9-5.6,3.7-2.1.8-4.8,1.2-8.2,1.4v2h40.7v-2c-3.4-.2-6.1-.6-8.2-1.4s-4-2-5.6-3.7Z"/>
  <g>
    <path class="st0" d="M230.7,97.8c-1.4,3.3-3.1,6.2-5.2,8.7-3,3.7-6.9,6.5-11.7,8.3-4.7,1.8-11,2.7-17.7,2.7s-12.1-1-16.2-3c-4.1-2-7.1-5.1-9.1-9.3-1.2-2.4-2-5.5-2.4-9.2s-.6-9.5-.6-17.6v-20.2h5c4.4,0,8,.4,10.8,1.3,2.8.9,5.1,2.3,6.9,4.2,1.8,2,3.3,4.3,4.3,7.1s1.8,6.5,2.3,11h2l.4-45h-2.3c-.5,3.4-1,6-1.7,7.9-.8,2.3-2.1,4.3-3.7,6-1.7,1.8-3.9,3.1-6.6,3.8s-6.7,1.1-12.1,1.1h-5.3v-18.8h-19.2v55.7c0,6-.3,10.5-1,13.4s-2,5.3-3.8,7.2c-1.6,1.7-3.5,2.9-5.6,3.7-2.1.8-4.8,1.2-8.2,1.4v2h105.3l1.1-35.2h-2c-1.2,5.3-2.4,9.6-3.7,12.8h0Z"/>
    <path class="st0" d="M143.8,6.8c1.9,1.9,3.1,4.3,3.8,7.2.5,1.9.7,4.5.9,7.8h19.3V2.6h20.2c6.2,0,11.2.4,15,1.3,3.8.9,7,2.3,9.8,4.4,3.4,2.5,5.9,5.4,7.7,8.6.8,1.5,1.5,3.1,2.1,4.9h3.3l-1.1-21.8v-.3c.1,0-94.8,0-94.8,0V1.7c3.5.2,6.2.6,8.3,1.4,2.1.8,3.9,2,5.5,3.7h0Z"/>
  </g>
  <g>
    <path class="st0" d="M15.9,7.7c2,2.4,4.5,7.1,7.6,14.1h20.8c-.6-1.7-1-2.9-1.2-3.6-.3-1.2-.4-2-.4-4.1s.6-4.1,1.7-6c1.1-1.8,2.6-3.2,4.4-4.1,1.9-.9,5.1-1.6,9.5-2V0H0v1.9c3.7,0,6.8.5,9.4,1.4,2.6.9,4.7,2.4,6.5,4.4h0Z"/>
    <path class="st0" d="M98.5,4.7c1.2,1.1,2.1,2.6,2.8,4.5.7,2,1.1,2.3,1.1,6.3s-.3,3.8-1,6.3h5.4c.7-1.4,1.2-2.7,1.8-3.8,1.6-3.2,3.1-5.8,4.6-7.7,2.1-2.6,4.4-4.6,6.8-5.9,2.4-1.3,5.2-2.1,8.4-2.4V0h-39.3v2c2.3,0,4.1.2,5.5.6s2.7,1.1,3.9,2.1h0Z"/>
    <polygon class="st0" points="96.2 36.8 71.8 97 49.7 36.8 29.5 36.8 62 120.4 65.7 120.4 100.4 36.8 96.2 36.8"/>
  </g>
  <g>
    <rect class="st0" x="348.3" y="36.8" width="3.5" height="47.7"/>
    <polygon class="st0" points="342.8 84.5 305.4 36.8 281.2 36.8 319.2 84.5 342.8 84.5"/>
    <polygon class="st0" points="331.1 99.5 347.8 120.5 351.8 120.5 351.8 99.5 331.1 99.5"/>
  </g>
  <g>
    <path class="st0" d="M488.7,84.5h19.2c.4-.9.8-1.8,1.1-2.7,2.7-7,4.1-6.8,4.1-21.8s-1.5-15.9-4.6-23.2h-19.9c2.2,7,3.3,9.1,3.3,25.2s-1,15.6-3.1,22.5h0Z"/>
    <path class="st0" d="M387.2,82.9c.2.5.4,1.1.7,1.6h19.8c-2-6.8-3-14.1-3-22.1h.1c0-9.1,1.1-17.6,3.3-25.6h-19.8c-3.3,7.5-4.9,15.6-4.9,24.3h0c0,7.6,1.3,14.8,3.9,21.8h-.1Z"/>
    <path class="st0" d="M482,99.5c-1.3,2.1-2.7,4.1-4.2,6.1-4.3,5.3-8.7,9.2-13.4,11.5s-10.2,3.5-16.3,3.5-11.5-1.2-16.2-3.6c-4.7-2.3-9.1-6.2-13.3-11.4-1.6-2-3-4-4.3-6.1h-17.6c.6.7,1.2,1.4,1.8,2.1,6.2,7.1,13.6,12.5,22.1,16.3s17.4,5.7,26.8,5.7,18.5-2,27.2-5.9,16.2-9.5,22.6-16.7c.4-.5.8-1,1.3-1.5,0,0-16.5,0-16.5,0Z"/>
  </g>
  <g>
    <path class="st0" d="M539.7,7.2c1.9,1.9,3.2,4.3,3.8,7.2.7,2.9,1,7.3,1,13.4v56.7h19.2v-22.9h4.7c2.6,0,4.9.3,6.7.8s3.5,1.3,5.1,2.5c3.1,2.4,6.5,6.8,10.3,13.2,1.2,2.1,2.4,4.2,3.6,6.5h19.9c-.9-1.8-1.8-3.6-2.7-5.6-2.2-4.7-3.9-7.9-5-9.8-1.1-1.8-2.3-3.4-3.7-4.6-1.7-1.6-4.4-3.1-7.9-4.6,4.3-.9,7.8-1.9,10.3-3s4.9-2.5,7-4.1c6.9-5.6,10.4-12.9,10.4-22.1s-1.6-11.6-4.8-16.3c-3.3-4.7-7.8-8.2-13.6-10.6-5.2-2.1-12.4-3.3-21.5-3.7h-56.6v2c3.3.2,6.1.6,8.2,1.4,2.2.8,4,2,5.6,3.7h0ZM567.4,2.8c6.3,0,11.2.4,14.6,1.2,3.4.8,6.3,2.2,8.8,4.2,3.2,2.6,5.7,6,7.5,10.1s2.7,4.4,2.7,13.1-3.1,16-9.3,21.9c-2.8,2.6-5.8,4.3-8.9,5.1-3.2.8-8.4,1.2-15.7,1.2h-3.3V2.8h3.6Z"/>
    <path class="st0" d="M568.5,113.5c-1.9-1.9-3.1-4.3-3.8-7.2-.4-1.7-.7-4-.8-6.8h-19.6c-.2,2.8-.5,5.1-.8,6.8-.7,2.9-1.9,5.3-3.8,7.2-1.6,1.7-3.4,2.9-5.5,3.7s-4.9,1.3-8.3,1.5v2h56.4v-2c-3.5-.2-6.2-.7-8.3-1.5s-3.9-2.1-5.5-3.7h0Z"/>
    <path class="st0" d="M630,113.3c-1.9-2.2-4.1-5.8-6.8-10.8-.5-.9-1-1.9-1.6-3h-20.3c0,.3.2.5.4.8l6.2,14c.4.9,1.3,3,2.8,6.2h29.3v-2c-2.4-.2-4.3-.7-5.7-1.4-1.4-.7-2.8-2-4.3-3.8h0Z"/>
  </g>
  <g>
    <path class="st0" d="M742.9,99.5c-1.2,2.6-2.7,4.9-4.4,7-3,3.7-6.9,6.5-11.7,8.3-4.7,1.8-11,2.7-17.7,2.7s-12.1-1-16.2-3-7.1-5.1-9.1-9.3c-.8-1.6-1.4-3.5-1.9-5.7h-20.5c-.2,2.6-.4,4.8-.8,6.4-.7,2.9-2,5.3-3.8,7.2-1.6,1.7-3.5,2.9-5.6,3.7-2.1.8-4.8,1.2-8.2,1.4v2h105.3l.6-20.7h-6,0Z"/>
    <path class="st0" d="M656.8,6.8c1.9,1.9,3.1,4.3,3.8,7.2.7,2.9,1,7.4,1,13.4v57.1h19.2v-26.3h5c4.4,0,8,.4,10.8,1.3,2.8.9,5.1,2.3,6.9,4.2,1.8,2,3.3,4.3,4.3,7.1s1.8,6.5,2.3,11h2l.4-47.4h-2c-.5,4.5-1.2,8-2,10.3s-2.1,4.3-3.7,6c-1.7,1.8-3.9,3.1-6.6,3.8-2.7.7-6.7,1.1-12.1,1.1h-5.3V2.6h20.2c6.2,0,11.2.4,15,1.3,3.8.9,7,2.3,9.8,4.4,3.4,2.5,5.9,5.4,7.7,8.6,1.8,3.3,3,7.3,3.8,12.2h2l-1.5-29.1v-.3h-94.8V1.7c3.5.2,6.2.6,8.3,1.4,2.1.8,3.9,2,5.5,3.7h0Z"/>
  </g>
</svg>