<?xml version="1.0" encoding="UTF-8"?>
<svg id="Camada_1" xmlns="http://www.w3.org/2000/svg" version="1.1" xmlns:xlink="http://www.w3.org/1999/xlink" viewBox="0 0 841.9 595.3">
  <!-- Generator: Adobe Illustrator 29.3.1, SVG Export Plug-In . SVG Version: 2.1.0 Build 151)  -->
  <defs>
    <style>
      .st0 {
        fill: #3c3c3b;
      }
    </style>
  </defs>
  <path class="st0" d="M460.6,254.4c1.6-3,3.4-5.7,5.4-8.2,3.9-4.9,8.1-8.4,12.7-10.6,4.6-2.2,9.9-3.3,16.2-3.3s11.8,1.1,16.4,3.3c4.6,2.3,8.8,5.8,12.6,10.6,2,2.5,3.7,5.2,5.3,8.2h16.8c-.5-.7-1.1-1.3-1.7-2-6.4-7.2-13.8-12.8-22.3-16.8s-19.2-6-26.3-6-14.2,1.3-21.2,3.8-13.5,6-19.6,10.7c-4.1,3.2-7.6,6.6-10.7,10.3h16.4Z"/>
  <path class="st0" d="M390.2,239.7c1.9,1.9,3.1,4.3,3.8,7.2.4,1.9.7,4.3.9,7.5h3.7c.1-3.1.4-5.6.9-7.5.7-2.9,2-5.3,3.8-7.2,3.3-3.4,7.9-5.1,13.8-5.1v-2h-40.7v2c3.4.2,6.1.6,8.2,1.4,2.1.8,4,2,5.6,3.7Z"/>
  <path class="st0" d="M303.1,239.7c1.9,1.9,3.1,4.3,3.8,7.2.4,1.9.7,4.4.9,7.5h3.6v-5.8l4.6,5.8h24.4l-17.1-21.8h-34v2c3.5.2,6.2.6,8.3,1.4,2.1.8,3.9,2,5.5,3.7Z"/>
  <path class="st0" d="M316.2,346c-1.9-1.9-3.1-4.3-3.8-7.2-.7-2.9-1-7.3-1-13.4v-56h-3.5v56c0,6-.3,10.5-1,13.4s-2,5.3-3.8,7.2c-1.6,1.7-3.5,2.9-5.6,3.7-2.1.8-4.8,1.2-8.2,1.4v2h40.7v-2c-3.4-.2-6.1-.6-8.2-1.4-2.1-.8-4-2-5.6-3.7Z"/>
  <g>
    <path class="st0" d="M277.4,330.4c-1.4,3.3-3.1,6.2-5.2,8.7-3,3.7-6.9,6.5-11.7,8.3-4.7,1.8-11,2.7-17.7,2.7s-12.1-1-16.2-3c-4.1-2-7.1-5.1-9.1-9.3-1.2-2.4-2-5.5-2.4-9.2-.4-3.7-.6-9.5-.6-17.6v-20.2h5c4.4,0,8,.4,10.8,1.3,2.8.9,5.1,2.3,6.9,4.2,1.8,2,3.3,4.3,4.3,7.1s1.8,6.5,2.3,11h2l.4-45h-2.3c-.5,3.4-1,6-1.7,7.9-.8,2.3-2.1,4.3-3.7,6-1.7,1.8-3.9,3.1-6.6,3.8s-6.7,1.1-12.1,1.1h-5.3v-18.8h-19.2v55.7c0,6-.3,10.5-1,13.4-.7,2.9-2,5.3-3.8,7.2-1.6,1.7-3.5,2.9-5.6,3.7-2.1.8-4.8,1.2-8.2,1.4v2h105.3l1.1-35.2h-2c-1.2,5.3-2.4,9.6-3.7,12.8Z"/>
    <path class="st0" d="M190.5,239.4c1.9,1.9,3.1,4.3,3.8,7.2.5,1.9.7,4.5.9,7.8h19.3v-19.2h20.2c6.2,0,11.2.4,15,1.3,3.8.9,7,2.3,9.8,4.4,3.4,2.5,5.9,5.4,7.7,8.6.8,1.5,1.5,3.1,2.1,4.9h3.3l-1.1-21.8v-.3c.1,0-94.8,0-94.8,0v2c3.5.2,6.2.6,8.3,1.4,2.1.8,3.9,2,5.5,3.7Z"/>
  </g>
  <g>
    <path class="st0" d="M62.6,240.3c2,2.4,4.5,7.1,7.6,14.1h20.8c-.6-1.7-1-2.9-1.2-3.6-.3-1.2-.4-2-.4-4.1s.6-4.1,1.7-6c1.1-1.8,2.6-3.2,4.4-4.1,1.9-.9,5.1-1.6,9.5-2v-2h-58.3v1.9c3.7,0,6.8.5,9.4,1.4,2.6.9,4.7,2.4,6.5,4.4Z"/>
    <path class="st0" d="M145.2,237.3c1.2,1.1,2.1,2.6,2.8,4.5.7,2,1.1,2.3,1.1,6.3s-.3,3.8-1,6.3h5.4c.7-1.4,1.2-2.7,1.8-3.8,1.6-3.2,3.1-5.8,4.6-7.7,2.1-2.6,4.4-4.6,6.8-5.9,2.4-1.3,5.2-2.1,8.4-2.4v-2h-39.3v2c2.3,0,4.1.2,5.5.6,1.4.4,2.7,1.1,3.9,2.1Z"/>
    <polygon class="st0" points="142.9 269.4 118.5 329.6 96.4 269.4 76.2 269.4 108.7 353 112.4 353 147.1 269.4 142.9 269.4"/>
  </g>
  <g>
    <rect class="st0" x="395" y="269.4" width="3.5" height="47.7"/>
    <polygon class="st0" points="389.5 317.1 352.1 269.4 327.9 269.4 365.9 317.1 389.5 317.1"/>
    <polygon class="st0" points="377.8 332.1 394.5 353.1 398.5 353.1 398.5 332.1 377.8 332.1"/>
  </g>
  <g>
    <path class="st0" d="M535.4,317.1h19.2c.4-.9.8-1.8,1.1-2.7,2.7-7,4.1-6.8,4.1-21.8s-1.5-15.9-4.6-23.2h-19.9c2.2,7,3.3,9.1,3.3,25.2s-1,15.6-3.1,22.5Z"/>
    <path class="st0" d="M433.9,315.5c.2.5.4,1.1.7,1.6h19.8c-2-6.8-3-14.1-3-22.1h.1c0-9.1,1.1-17.6,3.3-25.6h-19.8c-3.3,7.5-4.9,15.6-4.9,24.3h0c0,7.6,1.3,14.8,3.9,21.8Z"/>
    <path class="st0" d="M528.7,332.1c-1.3,2.1-2.7,4.1-4.2,6.1-4.3,5.3-8.7,9.2-13.4,11.5s-10.2,3.5-16.3,3.5-11.5-1.2-16.2-3.6c-4.7-2.3-9.1-6.2-13.3-11.4-1.6-2-3-4-4.3-6.1h-17.6c.6.7,1.2,1.4,1.8,2.1,6.2,7.1,13.6,12.5,22.1,16.3,8.5,3.8,17.4,5.7,26.8,5.7s18.5-2,27.2-5.9c8.7-3.9,16.2-9.5,22.6-16.7.4-.5.8-1,1.3-1.5h-16.4Z"/>
  </g>
  <g>
    <path class="st0" d="M586.4,239.8c1.9,1.9,3.2,4.3,3.8,7.2.7,2.9,1,7.3,1,13.4v56.7h19.2v-22.9h.4c0,0,4.3,0,4.3,0,2.6,0,4.9.3,6.7.8s3.5,1.3,5.1,2.5c3.1,2.4,6.5,6.8,10.3,13.2,1.2,2.1,2.4,4.2,3.6,6.5h19.9c-.9-1.8-1.8-3.6-2.7-5.6-2.2-4.7-3.9-7.9-5-9.8-1.1-1.8-2.3-3.4-3.7-4.6-1.7-1.6-4.4-3.1-7.9-4.6,4.3-.9,7.8-1.9,10.3-3,2.5-1.1,4.9-2.5,7-4.1,6.9-5.6,10.4-12.9,10.4-22.1s-1.6-11.6-4.8-16.3c-3.3-4.7-7.8-8.2-13.6-10.6-5.2-2.1-12.4-3.3-21.5-3.7h-56.6v2c3.3.2,6.1.6,8.2,1.4,2.2.8,4,2,5.6,3.7ZM614.1,235.4c6.3,0,11.2.4,14.6,1.2,3.4.8,6.3,2.2,8.8,4.2,3.2,2.6,5.7,6,7.5,10.1,1.8,4.1,2.7,4.4,2.7,13.1s-3.1,16-9.3,21.9c-2.8,2.6-5.8,4.3-8.9,5.1-3.2.8-8.4,1.2-15.7,1.2h-3.3v-56.8h3.6Z"/>
    <path class="st0" d="M615.2,346.1c-1.9-1.9-3.1-4.3-3.8-7.2-.4-1.7-.7-4-.8-6.8h-19.6c-.2,2.8-.5,5.1-.8,6.8-.7,2.9-1.9,5.3-3.8,7.2-1.6,1.7-3.4,2.9-5.5,3.7s-4.9,1.3-8.3,1.5v2h56.4v-2c-3.5-.2-6.2-.7-8.3-1.5-2.1-.8-3.9-2.1-5.5-3.7Z"/>
    <path class="st0" d="M676.7,345.9c-1.9-2.2-4.1-5.8-6.8-10.8-.5-.9-1-1.9-1.6-3h-20.3c.1.3.2.5.4.8l6.2,14c.4.9,1.3,3,2.8,6.2h29.3v-2c-2.4-.2-4.3-.7-5.7-1.4-1.4-.7-2.8-2-4.3-3.8Z"/>
  </g>
  <g>
    <path class="st0" d="M789.6,332.1c-1.2,2.6-2.7,4.9-4.4,7-3,3.7-6.9,6.5-11.7,8.3-4.7,1.8-11,2.7-17.7,2.7s-12.1-1-16.2-3-7.1-5.1-9.1-9.3c-.8-1.6-1.4-3.5-1.9-5.7h-20.5c-.2,2.6-.4,4.8-.8,6.4-.7,2.9-2,5.3-3.8,7.2-1.6,1.7-3.5,2.9-5.6,3.7-2.1.8-4.8,1.2-8.2,1.4v2h105.3l.6-20.7h-6Z"/>
    <path class="st0" d="M703.5,239.4c1.9,1.9,3.1,4.3,3.8,7.2.7,2.9,1,7.4,1,13.4v57.1h19.2c0-1.9,0-3.9,0-6.1v-20.2h5c4.4,0,8,.4,10.8,1.3,2.8.9,5.1,2.3,6.9,4.2,1.8,2,3.3,4.3,4.3,7.1s1.8,6.5,2.3,11h2l.4-47.4h-2c-.5,4.5-1.2,8-2,10.3s-2.1,4.3-3.7,6c-1.7,1.8-3.9,3.1-6.6,3.8-2.7.7-6.7,1.1-12.1,1.1h-5.3v-53h20.2c6.2,0,11.2.4,15,1.3,3.8.9,7,2.3,9.8,4.4,3.4,2.5,5.9,5.4,7.7,8.6,1.8,3.3,3,7.3,3.8,12.2h2l-1.5-29.1v-.3c.1,0-94.8,0-94.8,0v2c3.5.2,6.2.6,8.3,1.4,2.1.8,3.9,2,5.5,3.7Z"/>
  </g>
</svg>